<svg xmlns="http://www.w3.org/2000/svg" version="1.1" xmlns:xlink="http://www.w3.org/1999/xlink"
    xmlns:svgjs="http://svgjs.dev/svgjs" width="1500" height="1500" viewBox="0 0 1500 1500">
    <g transform="matrix(1,0,0,1,-0.323615160350073,-0.3236151603499593)"><svg viewBox="0 0 343 343"
            data-background-color="#fffff5" preserveAspectRatio="xMidYMid meet" height="1500" width="1500"
            xmlns="http://www.w3.org/2000/svg" xmlns:xlink="http://www.w3.org/1999/xlink">
            <g id="tight-bounds" transform="matrix(1,0,0,1,0.0740000000000407,0.07400000000001228)"><svg
                    viewBox="0 0 342.85155851775386 342.85155851775386" height="342.85155851775386"
                    width="342.85155851775386">
                    <g><svg></svg></g>
                    <g><svg viewBox="0 0 342.85155851775386 342.85155851775386" height="342.85155851775386"
                            width="342.85155851775386">
                            <g>
                                <path
                                    d="M0 171.426c0-94.676 76.75-171.426 171.426-171.426 94.676 0 171.426 76.75 171.426 171.426 0 94.676-76.75 171.426-171.426 171.426-94.676 0-171.426-76.75-171.426-171.426zM171.426 337.42c91.676 0 165.994-74.318 165.994-165.994 0-91.676-74.318-165.994-165.994-165.995-91.676 0-165.994 74.318-165.995 165.995 0 91.676 74.318 165.994 165.995 165.994z"
                                    data-fill-palette-color="tertiary" fill="#091627" stroke="transparent"></path>
                                <ellipse rx="164.56874808852186" ry="164.56874808852186" cx="171.42577925887693"
                                    cy="171.42577925887693" fill="#091627" stroke="transparent" stroke-width="0"
                                    fill-opacity="1" data-fill-palette-color="tertiary"></ellipse>
                            </g>
                            <g transform="matrix(1,0,0,1,64.84655864529837,97.87411916780152)"><svg
                                    viewBox="0 0 213.1584412271571 147.1033201821508" height="147.1033201821508"
                                    width="213.1584412271571">
                                    <g><svg viewBox="0 0 213.1584412271571 147.1033201821508" height="147.1033201821508"
                                            width="213.1584412271571">
                                            <g><svg viewBox="0 0 213.1584412271571 147.1033201821508"
                                                    height="147.1033201821508" width="213.1584412271571">
                                                    <g transform="matrix(1,0,0,1,0,86.87622717248003)"><svg
                                                            viewBox="0 0 213.1584412271571 60.22709300967077"
                                                            height="60.22709300967077" width="213.1584412271571">
                                                            <g id="textblocktransform"><svg
                                                                    viewBox="0 0 213.1584412271571 60.22709300967077"
                                                                    height="60.22709300967077" width="213.1584412271571"
                                                                    id="textblock">
                                                                    <g><svg viewBox="0 0 213.1584412271571 60.22709300967077"
                                                                            height="60.22709300967077"
                                                                            width="213.1584412271571">
                                                                            <g transform="matrix(1,0,0,1,0,0)"><svg
                                                                                    width="213.1584412271571"
                                                                                    viewBox="2.13 -33.13 147.66 41.730000000000004"
                                                                                    height="60.22709300967077"
                                                                                    data-palette-color="#fffff5">
                                                                                    <path
                                                                                        d="M12.68 0.58L12.68 0.58Q10.38 0.58 8.46 0.2 6.55-0.18 5.05-0.73 3.55-1.28 2.55-1.83L2.55-1.83 2.13-5.95Q4.05-4.8 6.66-3.94 9.28-3.08 12.35-3.08L12.35-3.08Q16.05-3.08 17.82-4.39 19.6-5.7 19.6-8.33L19.6-8.33 19.6-8.72Q19.6-10.45 18.9-11.55 18.2-12.65 16.54-13.4 14.88-14.15 12.03-14.8L12.03-14.8Q8.43-15.65 6.26-16.81 4.1-17.98 3.14-19.73 2.18-21.48 2.18-24.08L2.18-24.08 2.18-24.3Q2.18-28.23 4.75-30.36 7.33-32.5 12.55-32.5L12.55-32.5Q15.98-32.5 18.39-31.8 20.8-31.1 22.33-30.25L22.33-30.25 22.7-26.45Q20.93-27.5 18.56-28.24 16.2-28.98 13.15-28.98L13.15-28.98Q10.73-28.98 9.22-28.4 7.73-27.83 7.05-26.75 6.38-25.68 6.38-24.15L6.38-24.15 6.38-24.05Q6.38-22.5 7.04-21.4 7.7-20.3 9.36-19.5 11.03-18.7 14.1-17.95L14.1-17.95Q17.63-17.13 19.75-16.05 21.88-14.98 22.84-13.25 23.8-11.53 23.8-8.75L23.8-8.75 23.8-8.22Q23.8-3.9 21.01-1.66 18.23 0.58 12.68 0.58ZM50.05 0L45.2 0 35.55-11.38 32.97-11.38 32.97-14.53 35.55-14.53 44.8-24.4 49.6-24.4 38.52-12.63 38.52-13.6 50.05 0ZM33.37 0L29.35 0 29.35-33.13 33.37-33.13 33.37 0ZM62.32-3.78L64.65-3.78 62.52-2.85 69.82-24.4 74-24.4 62.52 8.6 58.42 8.6 62.27-2.55 64.05-1 59.45-1 51.47-24.4 55.67-24.4 62.32-3.78ZM90.39 0.53L90.39 0.53Q88.14 0.53 86.48-0.23 84.82-0.98 83.79-2.38 82.77-3.78 82.42-5.63L82.42-5.63 81.07-5.63 82.29-9.43Q82.42-7.23 83.33-5.76 84.24-4.3 85.77-3.58 87.29-2.85 89.22-2.85L89.22-2.85Q92.27-2.85 93.88-4.65 95.49-6.45 95.49-10L95.49-10 95.49-14.58Q95.49-18.05 93.87-19.85 92.24-21.65 89.14-21.65L89.14-21.65Q87.29-21.65 85.87-20.93 84.44-20.2 83.51-18.95 82.57-17.7 82.22-16.1L82.22-16.1 81.29-18.93 82.44-18.93Q82.82-20.6 83.78-21.96 84.74-23.33 86.42-24.14 88.09-24.95 90.57-24.95L90.57-24.95Q94.97-24.95 97.27-22.21 99.57-19.48 99.57-14.28L99.57-14.28 99.57-10.23Q99.57-4.98 97.23-2.23 94.89 0.53 90.39 0.53ZM82.42 0L78.37 0 78.37-33.13 82.39-33.13 82.39-25.18 82.27-18.18 82.29-17.4 82.29-7.2 82.24-5.9 82.42 0ZM114.92 0.63L114.92 0.63Q109.67 0.63 106.95-2.21 104.24-5.05 104.24-10.38L104.24-10.38 104.24-14.1Q104.24-19.4 106.97-22.23 109.69-25.05 114.92-25.05L114.92-25.05Q120.17-25.05 122.88-22.23 125.59-19.4 125.59-14.1L125.59-14.1 125.59-10.38Q125.59-5.05 122.88-2.21 120.17 0.63 114.92 0.63ZM114.92-2.68L114.92-2.68Q118.17-2.68 119.85-4.6 121.54-6.53 121.54-10.15L121.54-10.15 121.54-14.33Q121.54-17.93 119.85-19.84 118.17-21.75 114.92-21.75L114.92-21.75Q111.69-21.75 109.99-19.84 108.29-17.93 108.29-14.33L108.29-14.33 108.29-10.15Q108.29-6.53 109.99-4.6 111.69-2.68 114.92-2.68ZM132.39 0L127.96 0 135.96-13.28 135.96-12.13 128.11-24.4 132.56-24.4 138.71-14.48 139.06-14.48 145.19-24.4 149.64-24.4 141.79-12.13 141.79-13.28 149.79 0 145.36 0 139.06-10.6 138.71-10.6 132.39 0Z"
                                                                                        opacity="1"
                                                                                        transform="matrix(1,0,0,1,0,0)"
                                                                                        fill="#fffff5"
                                                                                        class="wordmark-text-0"
                                                                                        data-fill-palette-color="quaternary"
                                                                                        id="text-0"></path>
                                                                                </svg></g>
                                                                        </svg></g>
                                                                </svg></g>
                                                        </svg></g>
                                                    <g transform="matrix(1,0,0,1,40.713262274387006,0)"><svg
                                                            viewBox="0 0 131.7319166783831 72.65805596312899"
                                                            height="72.65805596312899" width="131.7319166783831">
                                                            <g><svg version="1.1" xmlns="http://www.w3.org/2000/svg"
                                                                    xmlns:xlink="http://www.w3.org/1999/xlink" x="0"
                                                                    y="0" viewBox="0 0 100 55.156"
                                                                    enable-background="new 0 0 100 55.156"
                                                                    xml:space="preserve" id="icon-0"
                                                                    width="131.7319166783831" height="72.65805596312899"
                                                                    class="icon-icon-0"
                                                                    data-fill-palette-color="quaternary">
                                                                    <path fill="#fffff5"
                                                                        d="M45.688 0C32.838 0 22.31 10.146 21.688 22.844 15.787 23.547 10.72 27.469 8.532 32.938 3.628 34.162 0 38.598 0 43.875 0 50.096 5.06 55.156 11.281 55.156H46.437V33.375L35.375 44.438V34.75L50 20.156 64.625 34.75V44.438L53.531 33.312V55.156H77.969C90.123 55.156 100 45.277 100 33.125 100 20.972 90.121 11.063 77.969 11.063 74.239 11.063 70.61 12.001 67.407 13.751 63.506 5.53 55.104 0 45.688 0"
                                                                        data-fill-palette-color="quaternary"></path>
                                                                </svg></g>
                                                        </svg></g>
                                                    <g></g>
                                                </svg></g>
                                        </svg></g>
                                </svg></g>
                        </svg></g>
                    <defs></defs>
                </svg>
                <rect width="342.85155851775386" height="342.85155851775386" fill="none" stroke="none"
                    visibility="hidden"></rect>
            </g>
        </svg></g>
</svg>